<?xml version="1.0" encoding="UTF-8" standalone="no"?>
<svg
   xmlns:dc="http://purl.org/dc/elements/1.1/"
   xmlns:cc="http://creativecommons.org/ns#"
   xmlns:rdf="http://www.w3.org/1999/02/22-rdf-syntax-ns#"
   xmlns:svg="http://www.w3.org/2000/svg"
   xmlns="http://www.w3.org/2000/svg"
   xmlns:sodipodi="http://sodipodi.sourceforge.net/DTD/sodipodi-0.dtd"
   xmlns:inkscape="http://www.inkscape.org/namespaces/inkscape"
   height="1000"
   viewBox="0 0 999.99984 1000"
   width="1000"
   version="1.1"
   id="svg6"
   sodipodi:docname="profile.svg"
   inkscape:version="0.92.4 (5da689c313, 2019-01-14)">
  <metadata
     id="metadata12">
    <rdf:RDF>
      <cc:Work
         rdf:about="">
        <dc:format>image/svg+xml</dc:format>
        <dc:type
           rdf:resource="http://purl.org/dc/dcmitype/StillImage" />
        <dc:title></dc:title>
      </cc:Work>
    </rdf:RDF>
  </metadata>
  <defs
     id="defs10" />
  <sodipodi:namedview
     pagecolor="#ffffff"
     bordercolor="#666666"
     borderopacity="1"
     objecttolerance="10"
     gridtolerance="10"
     guidetolerance="10"
     inkscape:pageopacity="0"
     inkscape:pageshadow="2"
     inkscape:window-width="1440"
     inkscape:window-height="838"
     id="namedview8"
     showgrid="true"
     inkscape:zoom="0.43457604"
     inkscape:cx="210.93038"
     inkscape:cy="455.1954"
     inkscape:window-x="-8"
     inkscape:window-y="-8"
     inkscape:window-maximized="1"
     inkscape:current-layer="svg6"
     showguides="true"
     inkscape:guide-bbox="true"
     units="px"
     width="298mm">
    <inkscape:grid
       type="xygrid"
       id="grid822" />
  </sodipodi:namedview>
  <path
     d="m 0,975.99991 h 24 v 24 H 0 Z"
     id="path2"
     inkscape:connector-curvature="0"
     style="fill:none" />
  <path
     d="m 499.96976,0.04361211 c -276.00003,0 -500.000034,223.99999789 -500.000034,499.99999789 0,276 224.000004,499.99999 500.000034,499.99999 276.00001,0 499.99997,-223.99999 499.99997,-499.99999 0,-276 -223.99996,-499.99999789 -499.99997,-499.99999789 z m 0,149.99999789 c 83,0 150.00001,67 150.00001,150 0,83 -67.00001,150 -150.00001,150 -83.00002,0 -150.00002,-67 -150.00002,-150 0,-83 67,-150 150.00002,-150 z m 0,710 c -125.00002,0 -235.50003,-64 -300.00003,-161 1.5,-99.5 200.00001,-154 300.00003,-154 99.5,0 298.50001,54.5 300.00001,154 -64.5,97 -175.00001,161 -300.00001,161 z"
     id="path4"
     inkscape:connector-curvature="0"
     style="stroke-width:50" />
</svg>
